<?xml version="1.0" standalone="no"?>
<!DOCTYPE svg PUBLIC "-//W3C//DTD SVG 20010904//EN"
 "http://www.w3.org/TR/2001/REC-SVG-20010904/DTD/svg10.dtd">
<svg version="1.0" xmlns="http://www.w3.org/2000/svg"
 width="267.000000pt" height="62.000000pt" viewBox="0 0 267.000000 62.000000"
 preserveAspectRatio="xMidYMid meet">

<g transform="translate(0.000000,62.000000) scale(0.100000,-0.100000)"
fill="#000000" stroke="none">
<path d="M2380 445 l0 -55 -60 0 -60 0 0 -40 0 -39 58 -3 57 -3 3 -57 3 -58
39 0 39 0 3 58 3 57 58 3 57 3 0 39 0 40 -60 0 -60 0 0 55 0 55 -40 0 -40 0 0
-55z"/>
<path d="M148 454 c-37 -11 -45 -18 -41 -33 5 -18 7 -18 50 -4 87 30 185 -3
168 -56 -8 -27 -43 -41 -101 -41 -37 0 -44 -3 -44 -20 0 -18 7 -20 54 -20 39
0 60 -6 80 -21 79 -62 -43 -135 -160 -95 -34 11 -51 13 -58 5 -21 -21 61 -59
129 -59 81 0 155 48 155 101 0 42 -9 58 -43 76 -28 14 -29 16 -11 25 69 37 54
116 -29 147 -38 15 -92 13 -149 -5z"/>
<path d="M430 290 l0 -180 25 0 c25 0 25 1 25 80 l0 81 113 -3 112 -3 0 -78
c0 -73 1 -77 23 -77 22 0 22 0 22 180 0 173 -1 180 -20 180 -18 0 -20 -7 -21
-65 -1 -36 -2 -71 -3 -77 -1 -9 -33 -14 -113 -16 l-113 -3 0 81 c0 79 0 80
-25 80 l-25 0 0 -180z"/>
<path d="M865 455 c-49 -19 -57 -27 -50 -47 6 -14 12 -14 52 4 33 14 59 19 91
15 51 -6 79 -29 88 -75 l7 -32 -82 0 c-129 0 -171 -26 -171 -108 0 -99 145
-137 228 -60 l22 21 0 -31 c0 -25 4 -32 20 -32 19 0 20 7 20 133 0 142 -7 166
-52 200 -35 26 -120 32 -173 12z m185 -205 c0 -18 -11 -42 -28 -61 -38 -43
-113 -52 -154 -19 -33 26 -36 62 -8 90 17 17 33 20 105 20 l85 0 0 -30z"/>
<path d="M1160 290 c0 -173 1 -180 20 -180 18 0 20 7 20 80 l0 80 115 0 115 0
0 -80 c0 -73 2 -80 20 -80 19 0 20 7 20 180 0 173 -1 180 -20 180 -18 0 -20
-7 -20 -80 l0 -80 -115 0 -115 0 0 80 c0 73 -2 80 -20 80 -19 0 -20 -7 -20
-180z"/>
<path d="M1550 290 c0 -173 1 -180 20 -180 18 0 20 7 21 63 1 34 2 69 3 77 1
12 22 16 114 18 l112 3 0 -81 c0 -79 0 -80 25 -80 l25 0 0 180 0 180 -25 0
c-25 0 -25 -1 -25 -80 l0 -81 -112 3 c-128 3 -114 -9 -117 103 -1 48 -4 55
-21 55 -19 0 -20 -7 -20 -180z"/>
<path d="M2003 463 c-12 -2 -36 -17 -53 -33 -25 -23 -30 -36 -30 -75 0 -56 12
-80 50 -104 l29 -17 -39 -55 c-45 -62 -47 -69 -20 -69 12 0 34 21 62 60 l42
60 63 0 63 0 0 -60 c0 -53 2 -60 20 -60 19 0 20 7 20 180 l0 180 -92 -1 c-51
-1 -103 -4 -115 -6z m167 -113 l0 -80 -72 0 c-83 0 -119 14 -132 51 -24 70 21
108 132 109 l72 0 0 -80z"/>
</g>
</svg>
